<svg width="1280" height="911" viewBox="0 0 1280 911" fill="none" xmlns="http://www.w3.org/2000/svg">
<path d="M-289.307 381.858C-289.18 381.842 -288.99 381.818 -288.74 381.79C-288.238 381.734 -287.489 381.658 -286.498 381.58C-284.515 381.423 -281.561 381.258 -277.668 381.221C-269.882 381.147 -258.337 381.586 -243.281 383.63C-213.168 387.719 -169.009 398.234 -112.781 423.929C-0.323694 475.318 160.402 587.421 353.629 830.25C546.783 1072.99 707.392 1184.97 819.674 1236.28C875.815 1261.94 919.878 1272.43 949.893 1276.5C964.9 1278.54 976.397 1278.97 984.136 1278.9C988.006 1278.86 990.936 1278.7 992.896 1278.55C993.876 1278.47 994.614 1278.39 995.105 1278.34C995.35 1278.31 995.535 1278.29 995.657 1278.27C995.718 1278.26 995.763 1278.26 995.793 1278.25L995.834 1278.25C995.835 1278.25 995.836 1278.25 995.908 1278.74C995.979 1279.23 995.979 1279.24 995.976 1279.24L995.929 1279.25C995.896 1279.25 995.848 1279.26 995.785 1279.26C995.657 1279.28 995.468 1279.3 995.217 1279.33C994.715 1279.39 993.966 1279.46 992.975 1279.54C990.992 1279.7 988.038 1279.86 984.145 1279.9C976.359 1279.98 964.815 1279.54 949.759 1277.49C919.645 1273.4 875.487 1262.89 819.258 1237.19C706.801 1185.8 546.075 1073.7 352.848 830.873C159.694 588.136 -0.914756 476.148 -113.197 424.838C-169.338 399.183 -213.4 388.696 -243.415 384.621C-258.423 382.583 -269.92 382.148 -277.659 382.222C-281.528 382.258 -284.458 382.422 -286.418 382.577C-287.398 382.654 -288.136 382.728 -288.627 382.783C-288.873 382.811 -289.057 382.834 -289.179 382.85C-289.24 382.858 -289.286 382.864 -289.316 382.868L-289.356 382.874C-289.358 382.874 -289.358 382.874 -289.43 382.379C-289.502 381.889 -289.501 381.884 -289.499 381.884L-289.451 381.877C-289.419 381.873 -289.371 381.866 -289.307 381.858ZM-282.546 372.787C-282.418 372.771 -282.229 372.747 -281.978 372.719C-281.476 372.663 -280.727 372.587 -279.736 372.509C-277.753 372.352 -274.799 372.187 -270.906 372.15C-263.12 372.076 -251.576 372.515 -236.52 374.559C-206.406 378.648 -162.248 389.163 -106.019 414.858C6.43783 466.248 167.164 578.35 360.391 821.179C553.545 1063.92 714.154 1175.9 826.436 1227.21C882.577 1252.87 926.639 1263.36 956.654 1267.43C971.662 1269.47 983.159 1269.9 990.898 1269.83C994.767 1269.79 997.697 1269.63 999.657 1269.47C1000.64 1269.4 1001.38 1269.32 1001.87 1269.27C1002.11 1269.24 1002.3 1269.22 1002.42 1269.2C1002.48 1269.19 1002.52 1269.19 1002.55 1269.18L1002.6 1269.18C1002.6 1269.18 1002.6 1269.18 1002.67 1269.67C1002.74 1270.16 1002.74 1270.17 1002.74 1270.17L1002.69 1270.17C1002.66 1270.18 1002.61 1270.19 1002.55 1270.19C1002.42 1270.21 1002.23 1270.23 1001.98 1270.26C1001.48 1270.32 1000.73 1270.39 999.737 1270.47C997.754 1270.63 994.8 1270.79 990.907 1270.83C983.121 1270.9 971.576 1270.47 956.52 1268.42C926.407 1264.33 882.248 1253.82 826.02 1228.12C713.563 1176.73 552.837 1064.63 359.61 821.802C166.456 579.065 5.84677 467.077 -106.435 415.767C-162.576 390.112 -206.639 379.625 -236.654 375.55C-251.661 373.512 -263.158 373.077 -270.897 373.151C-274.767 373.188 -277.697 373.351 -279.657 373.506C-280.637 373.583 -281.375 373.657 -281.866 373.712C-282.111 373.74 -282.296 373.763 -282.418 373.779C-282.479 373.787 -282.524 373.793 -282.554 373.797L-282.595 373.803C-282.596 373.803 -282.597 373.803 -282.669 373.308C-282.74 372.818 -282.74 372.814 -282.737 372.813L-282.69 372.806C-282.657 372.802 -282.609 372.795 -282.546 372.787ZM-275.784 363.716C-275.657 363.7 -275.467 363.677 -275.217 363.648C-274.715 363.592 -273.966 363.516 -272.975 363.438C-270.992 363.282 -268.038 363.116 -264.145 363.079C-256.359 363.005 -244.814 363.444 -229.758 365.488C-199.645 369.577 -155.486 380.092 -99.2577 405.787C13.1994 457.177 173.925 569.279 367.153 812.108C560.306 1054.84 720.915 1166.83 833.197 1218.14C889.338 1243.8 933.401 1254.28 963.416 1258.36C978.423 1260.4 989.921 1260.83 997.66 1260.76C1001.53 1260.72 1004.46 1260.56 1006.42 1260.4C1007.4 1260.33 1008.14 1260.25 1008.63 1260.2C1008.87 1260.17 1009.06 1260.15 1009.18 1260.13C1009.24 1260.12 1009.29 1260.12 1009.32 1260.11L1009.36 1260.11C1009.36 1260.11 1009.36 1260.11 1009.43 1260.6C1009.5 1261.09 1009.5 1261.1 1009.5 1261.1L1009.45 1261.1C1009.42 1261.11 1009.37 1261.11 1009.31 1261.12C1009.18 1261.14 1008.99 1261.16 1008.74 1261.19C1008.24 1261.25 1007.49 1261.32 1006.5 1261.4C1004.52 1261.56 1001.56 1261.72 997.668 1261.76C989.882 1261.83 978.338 1261.4 963.282 1259.35C933.168 1255.26 889.01 1244.75 832.781 1219.05C720.324 1167.66 559.598 1055.56 366.371 812.731C173.217 569.995 12.6083 458.006 -99.6738 406.696C-155.815 381.041 -199.877 370.554 -229.892 366.479C-244.9 364.441 -256.397 364.006 -264.136 364.08C-268.005 364.117 -270.935 364.28 -272.895 364.435C-273.875 364.512 -274.613 364.586 -275.104 364.641C-275.35 364.669 -275.534 364.692 -275.656 364.708C-275.717 364.716 -275.763 364.722 -275.793 364.726L-275.833 364.732C-275.835 364.732 -275.835 364.732 -275.907 364.238C-275.979 363.747 -275.978 363.743 -275.976 363.742L-275.928 363.735C-275.896 363.731 -275.847 363.724 -275.784 363.716ZM-269.023 354.645C-268.895 354.629 -268.706 354.606 -268.455 354.577C-267.953 354.521 -267.204 354.445 -266.213 354.367C-264.23 354.211 -261.276 354.045 -257.383 354.008C-249.597 353.934 -238.053 354.373 -222.997 356.417C-192.883 360.506 -148.725 371.021 -92.4962 396.716C19.9609 448.106 180.687 560.208 373.914 803.037C567.068 1045.77 727.677 1157.76 839.959 1209.07C896.1 1234.73 940.163 1245.21 970.177 1249.29C985.185 1251.33 996.682 1251.76 1004.42 1251.69C1008.29 1251.65 1011.22 1251.49 1013.18 1251.33C1014.16 1251.26 1014.9 1251.18 1015.39 1251.13C1015.64 1251.1 1015.82 1251.08 1015.94 1251.06C1016 1251.05 1016.05 1251.05 1016.08 1251.04L1016.12 1251.04C1016.12 1251.04 1016.12 1251.04 1016.19 1251.53C1016.26 1252.02 1016.26 1252.03 1016.26 1252.03L1016.21 1252.03C1016.18 1252.04 1016.13 1252.04 1016.07 1252.05C1015.94 1252.07 1015.75 1252.09 1015.5 1252.12C1015 1252.18 1014.25 1252.25 1013.26 1252.33C1011.28 1252.49 1008.32 1252.65 1004.43 1252.69C996.644 1252.76 985.099 1252.32 970.043 1250.28C939.93 1246.19 895.771 1235.68 839.543 1209.98C727.086 1158.59 566.36 1046.49 373.133 803.66C179.979 560.924 19.3698 448.935 -92.9123 397.625C-149.053 371.971 -193.116 361.483 -223.131 357.408C-238.138 355.37 -249.635 354.935 -257.374 355.009C-261.244 355.046 -264.174 355.209 -266.134 355.364C-267.114 355.441 -267.852 355.515 -268.343 355.571C-268.588 355.598 -268.773 355.621 -268.895 355.637C-268.956 355.645 -269.001 355.651 -269.031 355.655L-269.072 355.661C-269.073 355.661 -269.074 355.661 -269.146 355.167C-269.217 354.676 -269.217 354.672 -269.214 354.671L-269.167 354.664C-269.134 354.66 -269.086 354.654 -269.023 354.645ZM-262.261 345.574C-262.134 345.558 -261.944 345.535 -261.694 345.506C-261.191 345.45 -260.443 345.374 -259.451 345.296C-257.469 345.14 -254.515 344.975 -250.622 344.938C-242.836 344.863 -231.291 345.302 -216.235 347.346C-186.122 351.435 -141.963 361.95 -85.7347 387.645C26.7224 439.035 187.448 551.137 380.676 793.966C573.829 1036.7 734.438 1148.69 846.72 1200C902.861 1225.66 946.924 1236.14 976.939 1240.22C991.946 1242.26 1003.44 1242.69 1011.18 1242.62C1015.05 1242.58 1017.98 1242.42 1019.94 1242.26C1020.92 1242.18 1021.66 1242.11 1022.15 1242.06C1022.4 1242.03 1022.58 1242 1022.7 1241.99C1022.76 1241.98 1022.81 1241.97 1022.84 1241.97L1022.88 1241.96C1022.88 1241.96 1022.88 1241.96 1022.95 1242.46C1023.03 1242.95 1023.02 1242.95 1023.02 1242.95L1022.97 1242.96C1022.94 1242.97 1022.89 1242.97 1022.83 1242.98C1022.7 1243 1022.51 1243.02 1022.26 1243.05C1021.76 1243.11 1021.01 1243.18 1020.02 1243.26C1018.04 1243.42 1015.08 1243.58 1011.19 1243.62C1003.41 1243.69 991.861 1243.25 976.805 1241.21C946.691 1237.12 902.533 1226.6 846.304 1200.91C733.847 1149.52 573.121 1037.42 379.894 794.589C186.74 551.853 26.1314 439.864 -86.1507 388.554C-142.291 362.9 -186.354 352.412 -216.369 348.337C-231.377 346.299 -242.874 345.864 -250.613 345.938C-254.482 345.975 -257.412 346.139 -259.372 346.293C-260.352 346.37 -261.09 346.444 -261.581 346.5C-261.827 346.527 -262.011 346.551 -262.133 346.566C-262.194 346.574 -262.24 346.58 -262.27 346.584L-262.31 346.59C-262.312 346.59 -262.312 346.59 -262.384 346.096C-262.456 345.605 -262.455 345.601 -262.453 345.6L-262.405 345.593C-262.373 345.589 -262.324 345.583 -262.261 345.574ZM-255.499 336.503C-255.372 336.487 -255.183 336.464 -254.932 336.435C-254.43 336.379 -253.681 336.303 -252.69 336.225C-250.707 336.069 -247.753 335.904 -243.86 335.867C-236.074 335.793 -224.53 336.231 -209.474 338.275C-179.36 342.364 -135.202 352.879 -78.9731 378.574C33.4839 429.964 194.21 542.067 387.437 784.895C580.591 1027.63 741.2 1139.62 853.482 1190.93C909.623 1216.58 953.686 1227.07 983.7 1231.15C998.708 1233.19 1010.21 1233.62 1017.94 1233.55C1021.81 1233.51 1024.74 1233.35 1026.7 1233.19C1027.68 1233.11 1028.42 1233.04 1028.91 1232.98C1029.16 1232.96 1029.34 1232.93 1029.46 1232.92C1029.53 1232.91 1029.57 1232.9 1029.6 1232.9L1029.64 1232.89C1029.64 1232.89 1029.64 1232.89 1029.72 1233.39C1029.79 1233.88 1029.79 1233.88 1029.78 1233.88L1029.74 1233.89C1029.7 1233.9 1029.66 1233.9 1029.59 1233.91C1029.46 1233.93 1029.28 1233.95 1029.02 1233.98C1028.52 1234.03 1027.77 1234.11 1026.78 1234.19C1024.8 1234.34 1021.85 1234.51 1017.95 1234.55C1010.17 1234.62 998.623 1234.18 983.566 1232.14C953.453 1228.05 909.295 1217.53 853.066 1191.84C740.609 1140.45 579.883 1028.35 386.656 785.518C193.502 542.782 32.8929 430.793 -79.3892 379.483C-135.53 353.829 -179.593 343.341 -209.607 339.266C-224.615 337.228 -236.112 336.793 -243.851 336.867C-247.721 336.904 -250.651 337.068 -252.611 337.222C-253.591 337.299 -254.329 337.373 -254.82 337.429C-255.065 337.456 -255.25 337.48 -255.372 337.495C-255.432 337.503 -255.478 337.509 -255.508 337.513L-255.549 337.519C-255.55 337.519 -255.551 337.52 -255.623 337.025C-255.694 336.535 -255.693 336.53 -255.691 336.529L-255.644 336.523C-255.611 336.518 -255.563 336.512 -255.499 336.503ZM-248.738 327.433C-248.611 327.416 -248.421 327.393 -248.171 327.365C-247.668 327.308 -246.92 327.232 -245.928 327.154C-243.946 326.998 -240.992 326.833 -237.099 326.796C-229.313 326.722 -217.768 327.16 -202.712 329.204C-172.598 333.293 -128.44 343.808 -72.2116 369.503C40.2455 420.893 200.972 532.996 394.199 775.824C587.353 1018.56 747.961 1130.55 860.243 1181.86C916.384 1207.51 960.447 1218 990.462 1222.08C1005.47 1224.11 1016.97 1224.55 1024.71 1224.48C1028.57 1224.44 1031.5 1224.27 1033.46 1224.12C1034.44 1224.04 1035.18 1223.97 1035.67 1223.91C1035.92 1223.89 1036.1 1223.86 1036.23 1223.85C1036.29 1223.84 1036.33 1223.83 1036.36 1223.83L1036.4 1223.82C1036.4 1223.82 1036.4 1223.82 1036.48 1224.32C1036.55 1224.81 1036.55 1224.81 1036.55 1224.81L1036.5 1224.82C1036.47 1224.82 1036.42 1224.83 1036.35 1224.84C1036.23 1224.86 1036.04 1224.88 1035.79 1224.91C1035.28 1224.96 1034.54 1225.04 1033.54 1225.12C1031.56 1225.27 1028.61 1225.44 1024.71 1225.48C1016.93 1225.55 1005.38 1225.11 990.328 1223.07C960.214 1218.98 916.056 1208.46 859.827 1182.77C747.37 1131.38 586.644 1019.28 393.417 776.447C200.263 533.711 39.6544 421.722 -72.6277 370.412C-128.768 344.758 -172.831 334.271 -202.846 330.195C-217.854 328.157 -229.351 327.722 -237.09 327.796C-240.959 327.833 -243.889 327.997 -245.849 328.151C-246.829 328.228 -247.567 328.302 -248.058 328.358C-248.304 328.385 -248.488 328.409 -248.61 328.424C-248.671 328.432 -248.717 328.438 -248.747 328.442L-248.787 328.448C-248.789 328.449 -248.789 328.449 -248.861 327.954C-248.933 327.464 -248.932 327.459 -248.93 327.458L-248.882 327.452C-248.85 327.447 -248.801 327.441 -248.738 327.433ZM-241.976 318.362C-241.849 318.345 -241.66 318.322 -241.409 318.294C-240.907 318.237 -240.158 318.161 -239.167 318.083C-237.184 317.927 -234.23 317.762 -230.337 317.725C-222.551 317.651 -211.007 318.089 -195.951 320.133C-165.837 324.222 -121.679 334.737 -65.4501 360.432C47.007 411.822 207.733 523.925 400.96 766.753C594.114 1009.49 754.723 1121.48 867.005 1172.79C923.146 1198.44 967.209 1208.93 997.223 1213.01C1012.23 1215.04 1023.73 1215.48 1031.47 1215.4C1035.34 1215.37 1038.27 1215.2 1040.23 1215.05C1041.21 1214.97 1041.94 1214.9 1042.44 1214.84C1042.68 1214.81 1042.87 1214.79 1042.99 1214.78C1043.05 1214.77 1043.09 1214.76 1043.12 1214.76L1043.16 1214.75C1043.17 1214.75 1043.17 1214.75 1043.24 1215.25C1043.31 1215.74 1043.31 1215.74 1043.31 1215.74L1043.26 1215.75C1043.23 1215.75 1043.18 1215.76 1043.12 1215.77C1042.99 1215.78 1042.8 1215.81 1042.55 1215.84C1042.05 1215.89 1041.3 1215.97 1040.31 1216.05C1038.32 1216.2 1035.37 1216.37 1031.48 1216.4C1023.69 1216.48 1012.15 1216.04 997.089 1214C966.976 1209.91 922.818 1199.39 866.589 1173.7C754.132 1122.31 593.406 1010.2 400.179 767.376C207.025 524.64 46.4159 412.651 -65.8662 361.342C-122.007 335.687 -166.07 325.2 -196.084 321.124C-211.092 319.086 -222.589 318.652 -230.328 318.725C-234.197 318.762 -237.127 318.926 -239.088 319.08C-240.068 319.157 -240.805 319.232 -241.297 319.287C-241.542 319.314 -241.727 319.338 -241.848 319.354C-241.909 319.361 -241.955 319.367 -241.985 319.371L-242.026 319.377C-242.027 319.378 -242.028 319.378 -242.1 318.883C-242.171 318.393 -242.17 318.388 -242.168 318.388L-242.121 318.381C-242.088 318.376 -242.04 318.37 -241.976 318.362ZM-235.215 309.291C-235.088 309.274 -234.898 309.251 -234.647 309.223C-234.145 309.166 -233.396 309.09 -232.405 309.012C-230.423 308.856 -227.469 308.691 -223.576 308.654C-215.79 308.58 -204.245 309.018 -189.189 311.062C-159.075 315.151 -114.917 325.666 -58.6886 351.361C53.7685 402.751 214.495 514.854 407.722 757.682C600.876 1000.42 761.484 1112.41 873.767 1163.72C929.907 1189.37 973.97 1199.86 1003.98 1203.93C1018.99 1205.97 1030.49 1206.41 1038.23 1206.33C1042.1 1206.3 1045.03 1206.13 1046.99 1205.98C1047.97 1205.9 1048.71 1205.83 1049.2 1205.77C1049.44 1205.74 1049.63 1205.72 1049.75 1205.7C1049.81 1205.7 1049.86 1205.69 1049.89 1205.69L1049.93 1205.68C1049.93 1205.68 1049.93 1205.68 1050 1206.18C1050.07 1206.67 1050.07 1206.67 1050.07 1206.67L1050.02 1206.68C1049.99 1206.68 1049.94 1206.69 1049.88 1206.7C1049.75 1206.71 1049.56 1206.74 1049.31 1206.76C1048.81 1206.82 1048.06 1206.9 1047.07 1206.98C1045.08 1207.13 1042.13 1207.3 1038.24 1207.33C1030.45 1207.41 1018.91 1206.97 1003.85 1204.93C973.737 1200.84 929.579 1190.32 873.35 1164.63C760.893 1113.24 600.167 1001.13 406.94 758.305C213.786 515.569 53.1775 403.58 -59.1046 352.271C-115.245 326.616 -159.308 316.129 -189.323 312.053C-204.331 310.015 -215.828 309.581 -223.567 309.654C-227.436 309.691 -230.366 309.855 -232.326 310.009C-233.306 310.086 -234.044 310.161 -234.535 310.216C-234.781 310.244 -234.965 310.267 -235.087 310.283C-235.148 310.29 -235.194 310.296 -235.224 310.301L-235.264 310.306C-235.266 310.307 -235.266 310.307 -235.338 309.812C-235.41 309.322 -235.409 309.317 -235.406 309.317L-235.359 309.31C-235.327 309.305 -235.278 309.299 -235.215 309.291ZM-228.453 300.22C-228.326 300.203 -228.137 300.18 -227.886 300.152C-227.384 300.095 -226.635 300.019 -225.644 299.941C-223.661 299.785 -220.707 299.62 -216.814 299.583C-209.028 299.509 -197.484 299.947 -182.428 301.992C-152.314 306.081 -108.156 316.595 -51.927 342.29C60.5301 393.68 221.256 505.783 414.483 748.611C607.637 991.348 768.246 1103.34 880.528 1154.65C936.669 1180.3 980.732 1190.79 1010.75 1194.86C1025.75 1196.9 1037.25 1197.34 1044.99 1197.26C1048.86 1197.23 1051.79 1197.06 1053.75 1196.91C1054.73 1196.83 1055.47 1196.76 1055.96 1196.7C1056.2 1196.67 1056.39 1196.65 1056.51 1196.63C1056.57 1196.63 1056.62 1196.62 1056.65 1196.62L1056.69 1196.61C1056.69 1196.61 1056.69 1196.61 1056.76 1197.1C1056.83 1197.59 1056.83 1197.6 1056.83 1197.6L1056.78 1197.61C1056.75 1197.61 1056.7 1197.62 1056.64 1197.63C1056.51 1197.64 1056.32 1197.67 1056.07 1197.69C1055.57 1197.75 1054.82 1197.83 1053.83 1197.9C1051.85 1198.06 1048.89 1198.23 1045 1198.26C1037.21 1198.34 1025.67 1197.9 1010.61 1195.85C980.499 1191.77 936.341 1181.25 880.112 1155.56C767.655 1104.17 606.929 992.063 413.702 749.234C220.548 506.498 59.939 394.509 -52.3431 343.2C-108.484 317.545 -152.547 307.058 -182.561 302.982C-197.569 300.944 -209.066 300.51 -216.805 300.583C-220.674 300.62 -223.604 300.784 -225.565 300.938C-226.544 301.015 -227.282 301.09 -227.774 301.145C-228.019 301.173 -228.203 301.196 -228.325 301.212C-228.386 301.22 -228.432 301.225 -228.462 301.23L-228.503 301.236C-228.504 301.236 -228.504 301.236 -228.577 300.741C-228.648 300.251 -228.647 300.246 -228.645 300.246L-228.598 300.239C-228.565 300.234 -228.517 300.228 -228.453 300.22ZM-221.692 291.149C-221.565 291.132 -221.375 291.109 -221.124 291.081C-220.622 291.024 -219.873 290.948 -218.882 290.87C-216.9 290.714 -213.945 290.549 -210.052 290.512C-202.267 290.438 -190.722 290.876 -175.666 292.921C-145.552 297.01 -101.394 307.524 -45.1655 333.219C67.2916 384.609 228.018 496.712 421.245 739.54C614.399 982.277 775.008 1094.27 887.29 1145.58C943.43 1171.23 987.493 1181.72 1017.51 1185.79C1032.52 1187.83 1044.01 1188.27 1051.75 1188.19C1055.62 1188.15 1058.55 1187.99 1060.51 1187.84C1061.49 1187.76 1062.23 1187.69 1062.72 1187.63C1062.97 1187.6 1063.15 1187.58 1063.27 1187.56C1063.33 1187.56 1063.38 1187.55 1063.41 1187.55L1063.45 1187.54C1063.45 1187.54 1063.45 1187.54 1063.52 1188.03C1063.59 1188.52 1063.59 1188.53 1063.59 1188.53L1063.54 1188.54C1063.51 1188.54 1063.46 1188.55 1063.4 1188.56C1063.27 1188.57 1063.08 1188.59 1062.83 1188.62C1062.33 1188.68 1061.58 1188.76 1060.59 1188.83C1058.61 1188.99 1055.65 1189.15 1051.76 1189.19C1043.97 1189.27 1032.43 1188.83 1017.37 1186.78C987.26 1182.69 943.102 1172.18 886.874 1146.48C774.416 1095.09 613.69 982.992 420.463 740.164C227.309 497.427 66.7005 385.439 -45.5816 334.129C-101.722 308.474 -145.785 297.987 -175.8 293.911C-190.808 291.873 -202.305 291.439 -210.044 291.512C-213.913 291.549 -216.843 291.713 -218.803 291.867C-219.783 291.944 -220.521 292.019 -221.012 292.074C-221.258 292.102 -221.442 292.125 -221.564 292.141C-221.625 292.149 -221.671 292.155 -221.7 292.159L-221.741 292.165C-221.742 292.165 -221.743 292.165 -221.815 291.67C-221.887 291.18 -221.886 291.175 -221.883 291.175L-221.836 291.168C-221.804 291.163 -221.755 291.157 -221.692 291.149ZM-214.93 282.078C-214.803 282.061 -214.614 282.038 -214.363 282.01C-213.861 281.953 -213.112 281.877 -212.121 281.799C-210.138 281.643 -207.184 281.478 -203.291 281.441C-195.505 281.367 -183.961 281.805 -168.905 283.85C-138.791 287.939 -94.6326 298.454 -38.404 324.148C74.0531 375.538 234.779 487.641 428.006 730.469C621.16 973.206 781.769 1085.19 894.051 1136.5C950.192 1162.16 994.255 1172.65 1024.27 1176.72C1039.28 1178.76 1050.77 1179.19 1058.51 1179.12C1062.38 1179.08 1065.31 1178.92 1067.27 1178.77C1068.25 1178.69 1068.99 1178.61 1069.48 1178.56C1069.73 1178.53 1069.91 1178.51 1070.03 1178.49C1070.09 1178.48 1070.14 1178.48 1070.17 1178.47L1070.21 1178.47C1070.21 1178.47 1070.21 1178.47 1070.28 1178.96C1070.36 1179.45 1070.36 1179.46 1070.35 1179.46L1070.31 1179.47C1070.27 1179.47 1070.22 1179.48 1070.16 1179.48C1070.03 1179.5 1069.84 1179.52 1069.59 1179.55C1069.09 1179.61 1068.34 1179.68 1067.35 1179.76C1065.37 1179.92 1062.42 1180.08 1058.52 1180.12C1050.74 1180.2 1039.19 1179.76 1024.14 1177.71C994.022 1173.62 949.864 1163.11 893.635 1137.41C781.178 1086.02 620.452 973.921 427.225 731.093C234.071 488.356 73.462 376.368 -38.82 325.058C-94.9608 299.403 -139.024 288.916 -169.038 284.84C-184.046 282.802 -195.543 282.368 -203.282 282.441C-207.151 282.478 -210.081 282.642 -212.041 282.796C-213.021 282.874 -213.759 282.948 -214.251 283.003C-214.496 283.031 -214.68 283.054 -214.802 283.07C-214.863 283.078 -214.909 283.084 -214.939 283.088L-214.98 283.094C-214.981 283.094 -214.981 283.094 -215.054 282.599C-215.125 282.109 -215.124 282.104 -215.122 282.104L-215.075 282.097C-215.042 282.092 -214.994 282.086 -214.93 282.078ZM-208.169 273.007C-208.041 272.99 -207.852 272.967 -207.601 272.939C-207.099 272.882 -206.35 272.806 -205.359 272.728C-203.377 272.572 -200.422 272.407 -196.529 272.37C-188.743 272.296 -177.199 272.734 -162.143 274.779C-132.029 278.868 -87.8711 289.383 -31.6425 315.077C80.8146 366.467 241.541 478.57 434.768 721.398C627.922 964.135 788.531 1076.12 900.813 1127.43C956.953 1153.09 1001.02 1163.58 1031.03 1167.65C1046.04 1169.69 1057.54 1170.12 1065.27 1170.05C1069.14 1170.01 1072.07 1169.85 1074.03 1169.69C1075.01 1169.62 1075.75 1169.54 1076.24 1169.49C1076.49 1169.46 1076.67 1169.44 1076.79 1169.42C1076.86 1169.41 1076.9 1169.41 1076.93 1169.4L1076.97 1169.4C1076.97 1169.4 1076.97 1169.4 1077.05 1169.89C1077.12 1170.38 1077.12 1170.39 1077.11 1170.39L1077.07 1170.39C1077.03 1170.4 1076.99 1170.4 1076.92 1170.41C1076.8 1170.43 1076.61 1170.45 1076.36 1170.48C1075.85 1170.54 1075.1 1170.61 1074.11 1170.69C1072.13 1170.85 1069.18 1171.01 1065.28 1171.05C1057.5 1171.12 1045.95 1170.69 1030.9 1168.64C1000.78 1164.55 956.625 1154.04 900.397 1128.34C787.94 1076.95 627.213 964.85 433.986 722.022C240.832 479.285 80.2236 367.297 -32.0585 315.987C-88.1992 290.332 -132.262 279.845 -162.277 275.769C-177.284 273.732 -188.782 273.297 -196.521 273.371C-200.39 273.407 -203.32 273.571 -205.28 273.725C-206.26 273.803 -206.998 273.877 -207.489 273.932C-207.735 273.96 -207.919 273.983 -208.041 273.999C-208.102 274.007 -208.148 274.013 -208.177 274.017L-208.218 274.023C-208.219 274.023 -208.22 274.023 -208.292 273.528C-208.364 273.038 -208.363 273.033 -208.36 273.033L-208.313 273.026C-208.28 273.022 -208.232 273.015 -208.169 273.007ZM-201.407 263.936C-201.28 263.92 -201.091 263.896 -200.84 263.868C-200.338 263.812 -199.589 263.736 -198.598 263.657C-196.615 263.501 -193.661 263.336 -189.768 263.299C-181.982 263.225 -170.438 263.663 -155.381 265.708C-125.268 269.797 -81.1095 280.312 -24.8809 306.007C87.5762 357.396 248.302 469.499 441.529 712.328C634.683 955.064 795.292 1067.05 907.574 1118.36C963.715 1144.02 1007.78 1154.5 1037.79 1158.58C1052.8 1160.62 1064.3 1161.05 1072.04 1160.98C1075.91 1160.94 1078.84 1160.78 1080.8 1160.62C1081.78 1160.55 1082.51 1160.47 1083 1160.42C1083.25 1160.39 1083.43 1160.37 1083.56 1160.35C1083.62 1160.34 1083.66 1160.34 1083.69 1160.33L1083.73 1160.33C1083.74 1160.33 1083.74 1160.33 1083.81 1160.82C1083.88 1161.31 1083.88 1161.32 1083.88 1161.32L1083.83 1161.32C1083.8 1161.33 1083.75 1161.33 1083.68 1161.34C1083.56 1161.36 1083.37 1161.38 1083.12 1161.41C1082.61 1161.47 1081.87 1161.54 1080.87 1161.62C1078.89 1161.78 1075.94 1161.94 1072.05 1161.98C1064.26 1162.05 1052.71 1161.61 1037.66 1159.57C1007.54 1155.48 963.387 1144.97 907.158 1119.27C794.701 1067.88 633.975 955.779 440.748 712.951C247.594 470.214 86.9851 358.226 -25.297 306.916C-81.4377 281.261 -125.501 270.774 -155.515 266.698C-170.523 264.661 -182.02 264.226 -189.759 264.3C-193.628 264.336 -196.558 264.5 -198.518 264.655C-199.498 264.732 -200.236 264.806 -200.728 264.861C-200.973 264.889 -201.157 264.912 -201.279 264.928C-201.34 264.936 -201.386 264.942 -201.416 264.946L-201.456 264.952C-201.458 264.952 -201.458 264.952 -201.531 264.457C-201.602 263.967 -201.601 263.962 -201.599 263.962L-201.552 263.955C-201.519 263.951 -201.471 263.944 -201.407 263.936ZM-194.646 254.865C-194.518 254.849 -194.329 254.825 -194.078 254.797C-193.576 254.741 -192.827 254.665 -191.836 254.587C-189.853 254.43 -186.899 254.265 -183.006 254.228C-175.22 254.154 -163.676 254.593 -148.62 256.637C-118.506 260.726 -74.348 271.241 -18.1194 296.936C94.3377 348.325 255.064 460.428 448.291 703.257C641.445 945.993 802.054 1057.98 914.336 1109.29C970.476 1134.95 1014.54 1145.43 1044.55 1149.51C1059.56 1151.55 1071.06 1151.98 1078.8 1151.91C1082.67 1151.87 1085.6 1151.71 1087.56 1151.55C1088.54 1151.48 1089.28 1151.4 1089.77 1151.35C1090.01 1151.32 1090.2 1151.3 1090.32 1151.28C1090.38 1151.27 1090.42 1151.27 1090.45 1151.26L1090.5 1151.26C1090.5 1151.26 1090.5 1151.26 1090.57 1151.75C1090.64 1152.24 1090.64 1152.24 1090.64 1152.25L1090.59 1152.25C1090.56 1152.26 1090.51 1152.26 1090.45 1152.27C1090.32 1152.29 1090.13 1152.31 1089.88 1152.34C1089.38 1152.4 1088.63 1152.47 1087.64 1152.55C1085.65 1152.71 1082.7 1152.87 1078.81 1152.91C1071.02 1152.98 1059.48 1152.54 1044.42 1150.5C1014.31 1146.41 970.148 1135.9 913.92 1110.2C801.463 1058.81 640.737 946.708 447.509 703.88C254.355 461.143 93.7466 349.155 -18.5355 297.845C-74.6762 272.19 -118.739 261.703 -148.754 257.628C-163.761 255.59 -175.259 255.155 -182.998 255.229C-186.867 255.265 -189.797 255.429 -191.757 255.584C-192.737 255.661 -193.475 255.735 -193.966 255.79C-194.212 255.818 -194.396 255.841 -194.518 255.857C-194.579 255.865 -194.624 255.871 -194.654 255.875L-194.695 255.881C-194.696 255.881 -194.697 255.881 -194.769 255.386C-194.841 254.896 -194.84 254.891 -194.837 254.891L-194.79 254.884C-194.757 254.88 -194.709 254.873 -194.646 254.865ZM-187.884 245.794C-187.757 245.778 -187.568 245.754 -187.317 245.726C-186.815 245.67 -186.066 245.594 -185.075 245.516C-183.092 245.359 -180.138 245.194 -176.245 245.157C-168.459 245.083 -156.915 245.522 -141.858 247.566C-111.745 251.655 -67.5865 262.17 -11.3579 287.865C101.099 339.255 261.825 451.357 455.052 694.186C648.206 936.922 808.815 1048.91 921.097 1100.22C977.238 1125.88 1021.3 1136.36 1051.32 1140.44C1066.32 1142.48 1077.82 1142.91 1085.56 1142.84C1089.43 1142.8 1092.36 1142.64 1094.32 1142.48C1095.3 1142.4 1096.04 1142.33 1096.53 1142.28C1096.77 1142.25 1096.96 1142.22 1097.08 1142.21C1097.14 1142.2 1097.19 1142.19 1097.22 1142.19L1097.26 1142.18C1097.26 1142.18 1097.26 1142.18 1097.33 1142.68C1097.4 1143.17 1097.4 1143.17 1097.4 1143.17L1097.35 1143.18C1097.32 1143.19 1097.27 1143.19 1097.21 1143.2C1097.08 1143.22 1096.89 1143.24 1096.64 1143.27C1096.14 1143.32 1095.39 1143.4 1094.4 1143.48C1092.42 1143.64 1089.46 1143.8 1085.57 1143.84C1077.78 1143.91 1066.24 1143.47 1051.18 1141.43C1021.07 1137.34 976.91 1126.82 920.681 1101.13C808.224 1049.74 647.498 937.637 454.271 694.809C261.117 452.072 100.508 340.084 -11.7739 288.774C-67.9147 263.119 -111.978 252.632 -141.992 248.557C-157 246.519 -168.497 246.084 -176.236 246.158C-180.105 246.195 -183.035 246.358 -184.995 246.513C-185.975 246.59 -186.713 246.664 -187.204 246.719C-187.45 246.747 -187.634 246.77 -187.756 246.786C-187.817 246.794 -187.863 246.8 -187.893 246.804L-187.933 246.81C-187.935 246.81 -187.935 246.81 -188.008 246.315C-188.079 245.825 -188.078 245.821 -188.076 245.82L-188.028 245.813C-187.996 245.809 -187.948 245.802 -187.884 245.794ZM-181.123 236.723C-180.995 236.707 -180.806 236.684 -180.555 236.655C-180.053 236.599 -179.304 236.523 -178.313 236.445C-176.33 236.289 -173.376 236.123 -169.483 236.086C-161.697 236.012 -150.153 236.451 -135.097 238.495C-104.983 242.584 -60.8249 253.099 -4.59635 278.794C107.861 330.184 268.587 442.286 461.814 685.115C654.968 927.851 815.577 1039.84 927.859 1091.15C983.999 1116.8 1028.06 1127.29 1058.08 1131.37C1073.08 1133.4 1084.58 1133.84 1092.32 1133.77C1096.19 1133.73 1099.12 1133.57 1101.08 1133.41C1102.06 1133.33 1102.8 1133.26 1103.29 1133.2C1103.53 1133.18 1103.72 1133.15 1103.84 1133.14C1103.9 1133.13 1103.95 1133.12 1103.98 1133.12L1104.02 1133.11C1104.02 1133.11 1104.02 1133.11 1104.09 1133.61C1104.16 1134.1 1104.16 1134.1 1104.16 1134.1L1104.11 1134.11C1104.08 1134.11 1104.03 1134.12 1103.97 1134.13C1103.84 1134.15 1103.65 1134.17 1103.4 1134.2C1102.9 1134.25 1102.15 1134.33 1101.16 1134.41C1099.18 1134.56 1096.22 1134.73 1092.33 1134.77C1084.54 1134.84 1073 1134.4 1057.94 1132.36C1027.83 1128.27 983.671 1117.75 927.443 1092.06C814.986 1040.67 654.26 928.566 461.032 685.738C267.879 443.002 107.27 331.013 -5.01241 279.703C-61.1531 254.048 -105.216 243.561 -135.231 239.486C-150.238 237.448 -161.736 237.013 -169.475 237.087C-173.344 237.124 -176.274 237.287 -178.234 237.442C-179.214 237.519 -179.952 237.593 -180.443 237.648C-180.689 237.676 -180.873 237.699 -180.995 237.715C-181.056 237.723 -181.101 237.729 -181.131 237.733L-181.172 237.739C-181.173 237.739 -181.174 237.739 -181.246 237.245C-181.317 236.754 -181.317 236.75 -181.314 236.749L-181.267 236.742C-181.234 236.738 -181.186 236.731 -181.123 236.723ZM-174.361 227.652C-174.234 227.636 -174.045 227.613 -173.794 227.584C-173.292 227.528 -172.543 227.452 -171.552 227.374C-169.569 227.218 -166.615 227.052 -162.722 227.015C-154.936 226.941 -143.391 227.38 -128.335 229.424C-98.2217 233.513 -54.0634 244.028 2.16518 269.723C114.622 321.113 275.348 433.215 468.575 676.044C661.729 918.78 822.338 1030.77 934.62 1082.08C990.761 1107.73 1034.82 1118.22 1064.84 1122.3C1079.85 1124.33 1091.34 1124.77 1099.08 1124.69C1102.95 1124.66 1105.88 1124.49 1107.84 1124.34C1108.82 1124.26 1109.56 1124.19 1110.05 1124.13C1110.3 1124.11 1110.48 1124.08 1110.6 1124.07C1110.66 1124.06 1110.71 1124.05 1110.74 1124.05L1110.78 1124.04C1110.78 1124.04 1110.78 1124.04 1110.85 1124.54C1110.93 1125.03 1110.92 1125.03 1110.92 1125.03L1110.87 1125.04C1110.84 1125.04 1110.79 1125.05 1110.73 1125.06C1110.6 1125.08 1110.41 1125.1 1110.16 1125.13C1109.66 1125.18 1108.91 1125.26 1107.92 1125.34C1105.94 1125.49 1102.98 1125.66 1099.09 1125.7C1091.31 1125.77 1079.76 1125.33 1064.7 1123.29C1034.59 1119.2 990.433 1108.68 934.204 1082.99C821.747 1031.6 661.021 919.495 467.794 676.667C274.64 433.931 114.031 321.942 1.74912 270.632C-54.3916 244.978 -98.4545 234.49 -128.469 230.415C-143.477 228.377 -154.974 227.942 -162.713 228.016C-166.582 228.053 -169.512 228.216 -171.472 228.371C-172.452 228.448 -173.19 228.522 -173.681 228.578C-173.927 228.605 -174.111 228.628 -174.233 228.644C-174.294 228.652 -174.34 228.658 -174.37 228.662L-174.41 228.668C-174.412 228.668 -174.412 228.668 -174.484 228.174C-174.556 227.683 -174.555 227.679 -174.553 227.678L-174.505 227.671C-174.473 227.667 -174.425 227.661 -174.361 227.652ZM-167.6 218.581C-167.472 218.565 -167.283 218.542 -167.032 218.513C-166.53 218.457 -165.781 218.381 -164.79 218.303C-162.807 218.147 -159.853 217.982 -155.96 217.945C-148.174 217.87 -136.63 218.309 -121.574 220.353C-91.4602 224.442 -47.3019 234.957 8.92671 260.652C121.384 312.042 282.11 424.144 475.337 666.973C668.491 909.709 829.1 1021.7 941.382 1073.01C997.523 1098.66 1041.59 1109.15 1071.6 1113.23C1086.61 1115.26 1098.1 1115.7 1105.84 1115.62C1109.71 1115.59 1112.64 1115.42 1114.6 1115.27C1115.58 1115.19 1116.32 1115.12 1116.81 1115.06C1117.06 1115.03 1117.24 1115.01 1117.36 1115C1117.43 1114.99 1117.47 1114.98 1117.5 1114.98L1117.54 1114.97C1117.54 1114.97 1117.54 1114.97 1117.62 1115.47C1117.69 1115.96 1117.69 1115.96 1117.68 1115.96L1117.64 1115.97C1117.6 1115.97 1117.56 1115.98 1117.49 1115.99C1117.36 1116 1117.18 1116.03 1116.92 1116.06C1116.42 1116.11 1115.67 1116.19 1114.68 1116.27C1112.7 1116.42 1109.75 1116.59 1105.85 1116.62C1098.07 1116.7 1086.52 1116.26 1071.47 1114.22C1041.35 1110.13 997.194 1099.61 940.966 1073.92C828.509 1022.53 667.783 910.425 474.555 667.596C281.402 424.86 120.793 312.871 8.51065 261.561C-47.6301 235.907 -91.693 225.419 -121.708 221.344C-136.715 219.306 -148.213 218.871 -155.952 218.945C-159.821 218.982 -162.751 219.146 -164.711 219.3C-165.691 219.377 -166.429 219.451 -166.92 219.507C-167.165 219.534 -167.35 219.558 -167.472 219.573C-167.533 219.581 -167.578 219.587 -167.608 219.591L-167.649 219.597C-167.65 219.597 -167.651 219.597 -167.723 219.103C-167.794 218.612 -167.794 218.608 -167.791 218.607L-167.744 218.6C-167.711 218.596 -167.663 218.59 -167.6 218.581ZM-160.838 209.51C-160.711 209.494 -160.521 209.471 -160.271 209.442C-159.769 209.386 -159.02 209.31 -158.029 209.232C-156.046 209.076 -153.092 208.911 -149.199 208.874C-141.413 208.8 -129.868 209.238 -114.812 211.282C-84.6986 215.371 -40.5404 225.886 15.6882 251.581C128.145 302.971 288.871 415.074 482.099 657.902C675.252 900.638 835.861 1012.63 948.143 1063.94C1004.28 1089.59 1048.35 1100.08 1078.36 1104.15C1093.37 1106.19 1104.87 1106.63 1112.61 1106.55C1116.47 1106.52 1119.4 1106.35 1121.36 1106.2C1122.34 1106.12 1123.08 1106.05 1123.57 1105.99C1123.82 1105.96 1124 1105.94 1124.13 1105.92C1124.19 1105.92 1124.23 1105.91 1124.26 1105.91L1124.3 1105.9C1124.3 1105.9 1124.3 1105.9 1124.38 1106.4C1124.45 1106.89 1124.45 1106.89 1124.45 1106.89L1124.4 1106.9C1124.37 1106.9 1124.32 1106.91 1124.25 1106.92C1124.13 1106.93 1123.94 1106.96 1123.69 1106.98C1123.18 1107.04 1122.44 1107.12 1121.44 1107.2C1119.46 1107.35 1116.51 1107.52 1112.61 1107.55C1104.83 1107.63 1093.28 1107.19 1078.23 1105.14C1048.11 1101.06 1003.96 1090.54 947.727 1064.85C835.27 1013.46 674.544 901.354 481.317 658.525C288.163 415.789 127.554 303.8 15.2722 252.49C-40.8685 226.836 -84.9314 216.348 -114.946 212.273C-129.954 210.235 -141.451 209.8 -149.19 209.874C-153.059 209.911 -155.989 210.075 -157.949 210.229C-158.929 210.306 -159.667 210.38 -160.158 210.436C-160.404 210.463 -160.588 210.487 -160.71 210.502C-160.771 210.51 -160.817 210.516 -160.847 210.52L-160.887 210.526C-160.889 210.526 -160.889 210.527 -160.961 210.032C-161.033 209.542 -161.032 209.537 -161.03 209.536L-160.982 209.53C-160.95 209.525 -160.902 209.519 -160.838 209.51ZM-154.077 200.44C-153.949 200.423 -153.76 200.4 -153.509 200.372C-153.007 200.315 -152.258 200.239 -151.267 200.161C-149.284 200.005 -146.33 199.84 -142.437 199.803C-134.651 199.729 -123.107 200.167 -108.051 202.211C-77.9371 206.3 -33.7788 216.815 22.4498 242.51C134.907 293.9 295.633 406.003 488.86 648.831C682.014 891.567 842.623 1003.56 954.905 1054.87C1011.05 1080.52 1055.11 1091.01 1085.12 1095.08C1100.13 1097.12 1111.63 1097.56 1119.37 1097.48C1123.24 1097.45 1126.17 1097.28 1128.13 1097.13C1129.11 1097.05 1129.84 1096.98 1130.34 1096.92C1130.58 1096.89 1130.77 1096.87 1130.89 1096.85C1130.95 1096.85 1130.99 1096.84 1131.02 1096.84L1131.06 1096.83C1131.07 1096.83 1131.07 1096.83 1131.14 1097.32C1131.21 1097.81 1131.21 1097.82 1131.21 1097.82L1131.16 1097.83C1131.13 1097.83 1131.08 1097.84 1131.02 1097.85C1130.89 1097.86 1130.7 1097.89 1130.45 1097.91C1129.95 1097.97 1129.2 1098.05 1128.21 1098.12C1126.22 1098.28 1123.27 1098.45 1119.38 1098.48C1111.59 1098.56 1100.05 1098.12 1084.99 1096.07C1054.88 1091.99 1010.72 1081.47 954.489 1055.78C842.032 1004.39 681.306 892.283 488.079 649.454C294.925 406.718 134.316 294.729 22.0337 243.419C-34.107 217.765 -78.1699 207.278 -108.185 203.202C-123.192 201.164 -134.689 200.729 -142.428 200.803C-146.298 200.84 -149.228 201.004 -151.188 201.158C-152.168 201.235 -152.906 201.309 -153.397 201.365C-153.642 201.392 -153.827 201.416 -153.949 201.431C-154.01 201.439 -154.055 201.445 -154.085 201.449L-154.126 201.455C-154.127 201.456 -154.128 201.456 -154.2 200.961C-154.271 200.471 -154.271 200.466 -154.268 200.466L-154.221 200.459C-154.188 200.454 -154.14 200.448 -154.077 200.44ZM-147.315 191.369C-147.188 191.352 -146.998 191.329 -146.748 191.301C-146.245 191.244 -145.497 191.168 -144.505 191.09C-142.523 190.934 -139.569 190.769 -135.676 190.732C-127.89 190.658 -116.345 191.096 -101.289 193.14C-71.1756 197.229 -27.0173 207.744 29.2113 233.439C141.668 284.829 302.394 396.932 495.622 639.76C688.775 882.497 849.384 994.485 961.666 1045.79C1017.81 1071.45 1061.87 1081.94 1091.88 1086.01C1106.89 1088.05 1118.39 1088.48 1126.13 1088.41C1130 1088.37 1132.93 1088.21 1134.89 1088.06C1135.87 1087.98 1136.61 1087.9 1137.1 1087.85C1137.34 1087.82 1137.53 1087.8 1137.65 1087.78C1137.71 1087.78 1137.76 1087.77 1137.79 1087.76L1137.83 1087.76C1137.83 1087.76 1137.83 1087.76 1137.9 1088.25C1137.97 1088.74 1137.97 1088.75 1137.97 1088.75L1137.92 1088.76C1137.89 1088.76 1137.84 1088.77 1137.78 1088.77C1137.65 1088.79 1137.46 1088.81 1137.21 1088.84C1136.71 1088.9 1135.96 1088.98 1134.97 1089.05C1132.98 1089.21 1130.03 1089.37 1126.14 1089.41C1118.35 1089.49 1106.81 1089.05 1091.75 1087C1061.64 1082.91 1017.48 1072.4 961.25 1046.7C848.793 995.314 688.067 883.212 494.84 640.383C301.686 397.647 141.077 285.658 28.7952 234.349C-27.3455 208.694 -71.4084 198.207 -101.423 194.131C-116.431 192.093 -127.928 191.659 -135.667 191.732C-139.536 191.769 -142.466 191.933 -144.426 192.087C-145.406 192.164 -146.144 192.239 -146.635 192.294C-146.881 192.321 -147.065 192.345 -147.187 192.361C-147.248 192.368 -147.294 192.374 -147.324 192.378L-147.364 192.384C-147.366 192.385 -147.366 192.385 -147.438 191.89C-147.51 191.4 -147.509 191.395 -147.507 191.395L-147.459 191.388C-147.427 191.383 -147.378 191.377 -147.315 191.369ZM-140.553 182.298C-140.426 182.281 -140.237 182.258 -139.986 182.23C-139.484 182.173 -138.735 182.097 -137.744 182.019C-135.761 181.863 -132.807 181.698 -128.914 181.661C-121.128 181.587 -109.584 182.025 -94.5277 184.069C-64.4141 188.158 -20.2558 198.673 35.9728 224.368C148.43 275.758 309.156 387.861 502.383 630.689C695.537 873.426 856.146 985.414 968.428 1036.72C1024.57 1062.38 1068.63 1072.87 1098.65 1076.94C1113.65 1078.98 1125.15 1079.41 1132.89 1079.34C1136.76 1079.3 1139.69 1079.14 1141.65 1078.99C1142.63 1078.91 1143.37 1078.83 1143.86 1078.78C1144.1 1078.75 1144.29 1078.73 1144.41 1078.71C1144.47 1078.7 1144.52 1078.7 1144.55 1078.69L1144.59 1078.69C1144.59 1078.69 1144.59 1078.69 1144.66 1079.18C1144.73 1079.67 1144.73 1079.68 1144.73 1079.68L1144.68 1079.68C1144.65 1079.69 1144.6 1079.7 1144.54 1079.7C1144.41 1079.72 1144.22 1079.74 1143.97 1079.77C1143.47 1079.83 1142.72 1079.9 1141.73 1079.98C1139.75 1080.14 1136.79 1080.3 1132.9 1080.34C1125.11 1080.41 1113.57 1079.98 1098.51 1077.93C1068.4 1073.84 1024.24 1063.33 968.012 1037.63C855.555 986.244 694.829 874.141 501.602 631.312C308.448 388.576 147.839 276.587 35.5568 225.278C-20.584 199.623 -64.6468 189.136 -94.6615 185.06C-109.669 183.022 -121.166 182.588 -128.905 182.661C-132.775 182.698 -135.705 182.862 -137.665 183.016C-138.645 183.093 -139.383 183.168 -139.874 183.223C-140.119 183.251 -140.304 183.274 -140.426 183.29C-140.487 183.297 -140.532 183.303 -140.562 183.308L-140.603 183.313C-140.604 183.314 -140.605 183.314 -140.677 182.819C-140.748 182.329 -140.748 182.324 -140.745 182.324L-140.698 182.317C-140.665 182.312 -140.617 182.306 -140.553 182.298ZM-133.792 173.227C-133.665 173.21 -133.475 173.187 -133.225 173.159C-132.722 173.102 -131.974 173.026 -130.982 172.948C-129 172.792 -126.046 172.627 -122.153 172.59C-114.367 172.516 -102.822 172.954 -87.7662 174.999C-57.6525 179.088 -13.4943 189.602 42.7343 215.297C155.191 266.687 315.917 378.79 509.145 621.618C702.298 864.355 862.907 976.343 975.189 1027.65C1031.33 1053.31 1075.39 1063.8 1105.41 1067.87C1120.42 1069.91 1131.91 1070.34 1139.65 1070.27C1143.52 1070.23 1146.45 1070.07 1148.41 1069.91C1149.39 1069.84 1150.13 1069.76 1150.62 1069.71C1150.87 1069.68 1151.05 1069.66 1151.17 1069.64C1151.23 1069.63 1151.28 1069.63 1151.31 1069.62L1151.35 1069.62C1151.35 1069.62 1151.35 1069.62 1151.42 1070.11C1151.49 1070.6 1151.49 1070.61 1151.49 1070.61L1151.44 1070.61C1151.41 1070.62 1151.36 1070.62 1151.3 1070.63C1151.17 1070.65 1150.98 1070.67 1150.73 1070.7C1150.23 1070.76 1149.48 1070.83 1148.49 1070.91C1146.51 1071.07 1143.55 1071.23 1139.66 1071.27C1131.87 1071.34 1120.33 1070.91 1105.27 1068.86C1075.16 1064.77 1031 1054.26 974.773 1028.56C862.316 977.173 701.59 865.07 508.363 622.241C315.209 379.505 154.6 267.516 42.3183 216.207C-13.8224 190.552 -57.8853 180.065 -87.9 175.989C-102.908 173.951 -114.405 173.517 -122.144 173.59C-126.013 173.627 -128.943 173.791 -130.903 173.945C-131.883 174.022 -132.621 174.097 -133.112 174.152C-133.358 174.18 -133.542 174.203 -133.664 174.219C-133.725 174.227 -133.771 174.232 -133.801 174.237L-133.841 174.243C-133.843 174.243 -133.843 174.243 -133.915 173.748C-133.987 173.258 -133.986 173.253 -133.984 173.253L-133.936 173.246C-133.904 173.241 -133.855 173.235 -133.792 173.227ZM-127.03 164.156C-126.903 164.139 -126.714 164.116 -126.463 164.088C-125.961 164.031 -125.212 163.955 -124.221 163.877C-122.238 163.721 -119.284 163.556 -115.391 163.519C-107.605 163.445 -96.0608 163.883 -81.0047 165.928C-50.891 170.017 -6.73273 180.531 49.4959 206.226C161.953 257.616 322.679 369.719 515.906 612.547C709.06 855.284 869.669 967.272 981.951 1018.58C1038.09 1044.24 1082.15 1054.72 1112.17 1058.8C1127.18 1060.84 1138.67 1061.27 1146.41 1061.2C1150.28 1061.16 1153.21 1061 1155.17 1060.84C1156.15 1060.77 1156.89 1060.69 1157.38 1060.64C1157.63 1060.61 1157.81 1060.59 1157.93 1060.57C1157.99 1060.56 1158.04 1060.56 1158.07 1060.55L1158.11 1060.55C1158.11 1060.55 1158.11 1060.55 1158.18 1061.04C1158.26 1061.53 1158.26 1061.54 1158.25 1061.54L1158.21 1061.54C1158.17 1061.55 1158.12 1061.55 1158.06 1061.56C1157.93 1061.58 1157.74 1061.6 1157.49 1061.63C1156.99 1061.69 1156.24 1061.76 1155.25 1061.84C1153.27 1062 1150.31 1062.16 1146.42 1062.2C1138.64 1062.27 1127.09 1061.83 1112.04 1059.79C1081.92 1055.7 1037.76 1045.19 981.535 1019.49C869.078 968.102 708.352 855.999 515.125 613.171C321.971 370.434 161.362 258.446 49.0798 207.136C-7.06091 181.481 -51.1238 170.994 -81.1385 166.918C-96.1461 164.88 -107.643 164.446 -115.382 164.519C-119.251 164.556 -122.181 164.72 -124.142 164.874C-125.122 164.951 -125.859 165.026 -126.351 165.081C-126.596 165.109 -126.781 165.132 -126.903 165.148C-126.963 165.156 -127.009 165.162 -127.039 165.166L-127.08 165.172C-127.081 165.172 -127.082 165.172 -127.154 164.677C-127.225 164.187 -127.224 164.182 -127.222 164.182L-127.175 164.175C-127.142 164.17 -127.094 164.164 -127.03 164.156ZM-120.269 155.085C-120.142 155.068 -119.952 155.045 -119.701 155.017C-119.199 154.96 -118.451 154.884 -117.459 154.806C-115.477 154.65 -112.523 154.485 -108.63 154.448C-100.844 154.374 -89.2992 154.812 -74.2431 156.857C-44.1295 160.946 0.0287997 171.461 56.2574 197.155C168.714 248.545 329.441 360.648 522.668 603.476C715.822 846.213 876.43 958.201 988.713 1009.51C1044.85 1035.17 1088.92 1045.65 1118.93 1049.73C1133.94 1051.77 1145.44 1052.2 1153.17 1052.13C1157.04 1052.09 1159.97 1051.93 1161.93 1051.77C1162.91 1051.7 1163.65 1051.62 1164.14 1051.57C1164.39 1051.54 1164.57 1051.51 1164.69 1051.5C1164.76 1051.49 1164.8 1051.49 1164.83 1051.48L1164.87 1051.48C1164.87 1051.48 1164.87 1051.48 1164.95 1051.97C1165.02 1052.46 1165.02 1052.46 1165.01 1052.47L1164.97 1052.47C1164.93 1052.48 1164.89 1052.48 1164.82 1052.49C1164.7 1052.51 1164.51 1052.53 1164.26 1052.56C1163.75 1052.62 1163 1052.69 1162.01 1052.77C1160.03 1052.93 1157.08 1053.09 1153.18 1053.13C1145.4 1053.2 1133.85 1052.76 1118.8 1050.72C1088.68 1046.63 1044.53 1036.12 988.296 1010.42C875.839 959.031 715.113 846.928 521.886 604.1C328.732 361.363 168.123 249.375 55.8413 198.065C-0.299381 172.41 -44.3623 161.923 -74.3769 157.847C-89.3846 155.809 -100.882 155.375 -108.621 155.448C-112.49 155.485 -115.42 155.649 -117.38 155.803C-118.36 155.881 -119.098 155.955 -119.589 156.01C-119.835 156.038 -120.019 156.061 -120.141 156.077C-120.202 156.085 -120.248 156.091 -120.278 156.095L-120.318 156.101C-120.32 156.101 -120.32 156.101 -120.392 155.606C-120.464 155.116 -120.463 155.111 -120.461 155.111L-120.413 155.104C-120.381 155.099 -120.332 155.093 -120.269 155.085ZM-113.507 146.014C-113.38 145.997 -113.191 145.974 -112.94 145.946C-112.438 145.889 -111.689 145.813 -110.698 145.735C-108.715 145.579 -105.761 145.414 -101.868 145.377C-94.0821 145.303 -82.5377 145.741 -67.4816 147.786C-37.3679 151.875 6.79033 162.39 63.0189 188.084C175.476 239.474 336.202 351.577 529.429 594.405C722.583 837.142 883.192 949.13 995.474 1000.44C1051.61 1026.09 1095.68 1036.58 1125.69 1040.66C1140.7 1042.7 1152.2 1043.13 1159.94 1043.06C1163.81 1043.02 1166.74 1042.86 1168.7 1042.7C1169.68 1042.62 1170.41 1042.55 1170.9 1042.49C1171.15 1042.47 1171.33 1042.44 1171.46 1042.43C1171.52 1042.42 1171.56 1042.41 1171.59 1042.41L1171.63 1042.4C1171.63 1042.4 1171.64 1042.4 1171.71 1042.9C1171.78 1043.39 1171.78 1043.39 1171.78 1043.39L1171.73 1043.4C1171.7 1043.41 1171.65 1043.41 1171.58 1043.42C1171.46 1043.44 1171.27 1043.46 1171.02 1043.49C1170.51 1043.54 1169.77 1043.62 1168.77 1043.7C1166.79 1043.85 1163.84 1044.02 1159.94 1044.06C1152.16 1044.13 1140.61 1043.69 1125.56 1041.65C1095.44 1037.56 1051.29 1027.04 995.058 1001.35C882.601 949.96 721.875 837.857 528.648 595.029C335.494 352.292 174.885 240.304 62.6029 188.994C6.46215 163.339 -37.6007 152.852 -67.6154 148.776C-82.6231 146.739 -94.1203 146.304 -101.859 146.378C-105.728 146.414 -108.658 146.578 -110.619 146.732C-111.599 146.81 -112.336 146.884 -112.828 146.939C-113.073 146.967 -113.258 146.99 -113.379 147.006C-113.44 147.014 -113.486 147.02 -113.516 147.024L-113.557 147.03C-113.558 147.03 -113.559 147.03 -113.631 146.535C-113.702 146.045 -113.701 146.04 -113.699 146.04L-113.652 146.033C-113.619 146.029 -113.571 146.022 -113.507 146.014ZM-106.746 136.943C-106.619 136.927 -106.429 136.903 -106.178 136.875C-105.676 136.819 -104.927 136.743 -103.936 136.664C-101.954 136.508 -98.9995 136.343 -95.1065 136.306C-87.3205 136.232 -75.7762 136.67 -60.7201 138.715C-30.6064 142.804 13.5519 153.319 69.7805 179.014C182.238 230.403 342.964 342.506 536.191 585.335C729.345 828.071 889.953 940.06 1002.24 991.369C1058.38 1017.02 1102.44 1027.51 1132.45 1031.59C1147.46 1033.62 1158.96 1034.06 1166.7 1033.99C1170.57 1033.95 1173.5 1033.79 1175.46 1033.63C1176.44 1033.55 1177.17 1033.48 1177.67 1033.42C1177.91 1033.4 1178.1 1033.37 1178.22 1033.36C1178.28 1033.35 1178.32 1033.34 1178.35 1033.34L1178.4 1033.33C1178.4 1033.33 1178.4 1033.33 1178.47 1033.83C1178.54 1034.32 1178.54 1034.32 1178.54 1034.32L1178.49 1034.33C1178.46 1034.33 1178.41 1034.34 1178.35 1034.35C1178.22 1034.37 1178.03 1034.39 1177.78 1034.42C1177.28 1034.47 1176.53 1034.55 1175.54 1034.63C1173.55 1034.78 1170.6 1034.95 1166.71 1034.99C1158.92 1035.06 1147.38 1034.62 1132.32 1032.58C1102.21 1028.49 1058.05 1017.97 1001.82 992.279C889.362 940.889 728.636 828.786 535.409 585.958C342.255 343.221 181.646 231.233 69.3644 179.923C13.2237 154.268 -30.8392 143.781 -60.8539 139.705C-75.8616 137.668 -87.3588 137.233 -95.0978 137.307C-98.9669 137.343 -101.897 137.507 -103.857 137.662C-104.837 137.739 -105.575 137.813 -106.066 137.868C-106.312 137.896 -106.496 137.919 -106.618 137.935C-106.679 137.943 -106.725 137.949 -106.754 137.953L-106.795 137.959C-106.797 137.959 -106.797 137.959 -106.869 137.464C-106.941 136.974 -106.94 136.969 -106.937 136.969L-106.89 136.962C-106.858 136.958 -106.809 136.951 -106.746 136.943ZM-99.9843 127.872C-99.857 127.856 -99.6677 127.832 -99.4169 127.804C-98.9148 127.748 -98.1659 127.672 -97.1748 127.594C-95.1921 127.437 -92.238 127.272 -88.345 127.235C-80.559 127.161 -69.0147 127.6 -53.9586 129.644C-23.8449 133.733 20.3134 144.248 76.542 169.943C188.999 221.332 349.725 333.435 542.952 576.264C736.106 819 896.715 930.989 1009 982.298C1065.14 1007.95 1109.2 1018.44 1139.22 1022.52C1154.22 1024.55 1165.72 1024.99 1173.46 1024.91C1177.33 1024.88 1180.26 1024.71 1182.22 1024.56C1183.2 1024.48 1183.94 1024.41 1184.43 1024.35C1184.67 1024.33 1184.86 1024.3 1184.98 1024.29C1185.04 1024.28 1185.09 1024.27 1185.12 1024.27L1185.16 1024.26C1185.16 1024.26 1185.16 1024.26 1185.23 1024.76C1185.3 1025.25 1185.3 1025.25 1185.3 1025.25L1185.25 1025.26C1185.22 1025.26 1185.17 1025.27 1185.11 1025.28C1184.98 1025.29 1184.79 1025.32 1184.54 1025.35C1184.04 1025.4 1183.29 1025.48 1182.3 1025.56C1180.32 1025.71 1177.36 1025.88 1173.47 1025.92C1165.68 1025.99 1154.14 1025.55 1139.08 1023.51C1108.97 1019.42 1064.81 1008.9 1008.58 983.208C896.124 931.818 735.398 819.715 542.171 576.887C349.017 334.15 188.408 222.162 76.1259 170.852C19.9852 145.197 -24.0777 134.71 -54.0924 130.635C-69.1 128.597 -80.5973 128.162 -88.3363 128.236C-92.2054 128.272 -95.1354 128.436 -97.0955 128.591C-98.0755 128.668 -98.8134 128.742 -99.3046 128.797C-99.5502 128.825 -99.7345 128.848 -99.8564 128.864C-99.9173 128.872 -99.9631 128.878 -99.993 128.882L-100.034 128.888C-100.035 128.888 -100.035 128.888 -100.108 128.393C-100.179 127.903 -100.178 127.898 -100.176 127.898L-100.129 127.891C-100.096 127.887 -100.048 127.88 -99.9843 127.872ZM-93.2228 118.801C-93.0955 118.785 -92.9062 118.761 -92.6554 118.733C-92.1533 118.677 -91.4044 118.601 -90.4133 118.523C-88.4306 118.366 -85.4765 118.201 -81.5835 118.164C-73.7975 118.09 -62.2531 118.529 -47.197 120.573C-17.0834 124.662 27.0749 135.177 83.3035 160.872C195.761 212.262 356.487 324.364 549.714 567.193C742.868 809.929 903.477 921.918 1015.76 973.227C1071.9 998.882 1115.96 1009.37 1145.98 1013.45C1160.98 1015.48 1172.48 1015.92 1180.22 1015.84C1184.09 1015.81 1187.02 1015.64 1188.98 1015.49C1189.96 1015.41 1190.7 1015.34 1191.19 1015.28C1191.43 1015.25 1191.62 1015.23 1191.74 1015.22C1191.8 1015.21 1191.85 1015.2 1191.88 1015.2L1191.92 1015.19C1191.92 1015.19 1191.92 1015.19 1191.99 1015.69C1192.06 1016.18 1192.06 1016.18 1192.06 1016.18L1192.01 1016.19C1191.98 1016.19 1191.93 1016.2 1191.87 1016.21C1191.74 1016.22 1191.55 1016.25 1191.3 1016.28C1190.8 1016.33 1190.05 1016.41 1189.06 1016.49C1187.08 1016.64 1184.12 1016.81 1180.23 1016.84C1172.44 1016.92 1160.9 1016.48 1145.84 1014.44C1115.73 1010.35 1071.57 999.832 1015.34 974.137C902.885 922.747 742.159 810.644 548.932 567.816C355.778 325.079 195.17 213.091 82.8874 161.781C26.7467 136.126 -17.3161 125.639 -47.3308 121.564C-62.3385 119.526 -73.8357 119.091 -81.5747 119.165C-85.4439 119.202 -88.3739 119.365 -90.334 119.52C-91.3139 119.597 -92.0519 119.671 -92.5431 119.726C-92.7887 119.754 -92.9729 119.777 -93.0949 119.793C-93.1558 119.801 -93.2016 119.807 -93.2314 119.811L-93.272 119.817C-93.2735 119.817 -93.274 119.817 -93.3461 119.322C-93.4176 118.832 -93.4168 118.828 -93.4144 118.827L-93.3671 118.82C-93.3345 118.816 -93.2862 118.809 -93.2228 118.801ZM-86.4613 109.73C-86.334 109.714 -86.1447 109.691 -85.8939 109.662C-85.3917 109.606 -84.6429 109.53 -83.6518 109.452C-81.6691 109.296 -78.7149 109.13 -74.8219 109.093C-67.036 109.019 -55.4916 109.458 -40.4355 111.502C-10.3218 115.591 33.8364 126.106 90.065 151.801C202.522 203.191 363.248 315.293 556.475 558.122C749.629 800.858 910.238 912.847 1022.52 964.157C1078.66 989.811 1122.72 1000.3 1152.74 1004.37C1167.75 1006.41 1179.24 1006.85 1186.98 1006.77C1190.85 1006.74 1193.78 1006.57 1195.74 1006.42C1196.72 1006.34 1197.46 1006.27 1197.95 1006.21C1198.2 1006.18 1198.38 1006.16 1198.5 1006.14C1198.56 1006.14 1198.61 1006.13 1198.64 1006.13L1198.68 1006.12C1198.68 1006.12 1198.68 1006.12 1198.75 1006.62C1198.83 1007.11 1198.82 1007.11 1198.82 1007.11L1198.77 1007.12C1198.74 1007.12 1198.69 1007.13 1198.63 1007.14C1198.5 1007.15 1198.31 1007.18 1198.06 1007.2C1197.56 1007.26 1196.81 1007.34 1195.82 1007.42C1193.84 1007.57 1190.88 1007.74 1186.99 1007.77C1179.21 1007.85 1167.66 1007.41 1152.6 1005.36C1122.49 1001.28 1078.33 990.761 1022.1 965.066C909.647 913.676 748.921 801.573 555.694 558.745C362.54 316.009 201.931 204.02 89.649 152.71C33.5083 127.055 -10.5546 116.568 -40.5693 112.493C-55.577 110.455 -67.0742 110.02 -74.8132 110.094C-78.6823 110.131 -81.6123 110.294 -83.5724 110.449C-84.5524 110.526 -85.2903 110.6 -85.7816 110.655C-86.0272 110.683 -86.2114 110.706 -86.3334 110.722C-86.3943 110.73 -86.44 110.736 -86.4699 110.74L-86.5105 110.746C-86.5119 110.746 -86.5124 110.746 -86.5846 110.252C-86.6561 109.761 -86.6553 109.757 -86.6529 109.756L-86.6055 109.749C-86.573 109.745 -86.5247 109.738 -86.4613 109.73ZM-79.6998 100.659C-79.5724 100.643 -79.3831 100.62 -79.1323 100.591C-78.6302 100.535 -77.8813 100.459 -76.8902 100.381C-74.9075 100.225 -71.9534 100.059 -68.0604 100.022C-60.2744 99.9484 -48.7301 100.387 -33.674 102.431C-3.56031 106.52 40.598 117.035 96.8266 142.73C209.284 194.12 370.01 306.222 563.237 549.051C756.391 791.787 917 903.776 1029.28 955.086C1085.42 980.74 1129.49 991.228 1159.5 995.303C1174.51 997.341 1186 997.776 1193.74 997.702C1197.61 997.665 1200.54 997.501 1202.5 997.347C1203.48 997.27 1204.22 997.196 1204.71 997.14C1204.96 997.113 1205.14 997.089 1205.26 997.074C1205.32 997.066 1205.37 997.06 1205.4 997.056L1205.44 997.05C1205.44 997.05 1205.44 997.049 1205.52 997.544C1205.59 998.034 1205.59 998.039 1205.58 998.04L1205.54 998.046C1205.5 998.051 1205.46 998.057 1205.39 998.066C1205.26 998.082 1205.08 998.105 1204.82 998.134C1204.32 998.19 1203.57 998.266 1202.58 998.344C1200.6 998.5 1197.65 998.665 1193.75 998.702C1185.97 998.776 1174.42 998.338 1159.37 996.294C1129.25 992.205 1085.09 981.69 1028.87 955.995C916.409 904.605 755.682 792.502 562.455 549.674C369.301 306.938 208.693 194.949 96.4105 143.639C40.2698 117.985 -3.79309 107.497 -33.8078 103.422C-48.8155 101.384 -60.3127 100.949 -68.0517 101.023C-71.9208 101.06 -74.8508 101.223 -76.8109 101.378C-77.7909 101.455 -78.5288 101.529 -79.02 101.585C-79.2656 101.612 -79.4499 101.635 -79.5718 101.651C-79.6328 101.659 -79.6785 101.665 -79.7084 101.669L-79.749 101.675C-79.7504 101.675 -79.7509 101.675 -79.8231 101.181C-79.8946 100.69 -79.8938 100.686 -79.8914 100.685L-79.844 100.678C-79.8115 100.674 -79.7632 100.668 -79.6998 100.659ZM-72.9382 91.5884C-72.8109 91.5719 -72.6216 91.5487 -72.3708 91.5204C-71.8687 91.4639 -71.1198 91.3879 -70.1287 91.3098C-68.146 91.1537 -65.1919 90.9886 -61.2989 90.9515C-53.5129 90.8775 -41.9685 91.3158 -26.9124 93.3602C3.20122 97.4492 47.3595 107.964 103.588 133.659C216.045 185.049 376.771 297.151 569.998 539.98C763.152 782.716 923.761 894.705 1036.04 946.015C1092.18 971.669 1136.25 982.157 1166.26 986.232C1181.27 988.27 1192.77 988.705 1200.51 988.631C1204.37 988.594 1207.3 988.431 1209.26 988.276C1210.24 988.199 1210.98 988.125 1211.47 988.069C1211.72 988.042 1211.9 988.018 1212.03 988.003C1212.09 987.995 1212.13 987.989 1212.16 987.985L1212.2 987.979C1212.2 987.979 1212.2 987.979 1212.28 988.473C1212.35 988.964 1212.35 988.968 1212.35 988.969L1212.3 988.976C1212.27 988.98 1212.22 988.986 1212.15 988.995C1212.03 989.011 1211.84 989.034 1211.59 989.063C1211.08 989.119 1210.34 989.195 1209.34 989.273C1207.36 989.429 1204.41 989.594 1200.51 989.631C1192.73 989.706 1181.18 989.267 1166.13 987.223C1136.01 983.134 1091.86 972.619 1035.63 946.924C923.17 895.534 762.444 783.432 569.217 540.603C376.063 297.867 215.454 185.878 103.172 134.568C47.0313 108.914 2.96843 98.4264 -27.0463 94.3508C-42.0539 92.313 -53.5511 91.8783 -61.2901 91.952C-65.1593 91.9888 -68.0893 92.1525 -70.0494 92.3069C-71.0294 92.384 -71.7673 92.4583 -72.2585 92.5136C-72.5041 92.5413 -72.6884 92.5645 -72.8103 92.5803C-72.8712 92.5882 -72.917 92.5941 -72.9468 92.5983L-72.9874 92.6042C-72.9889 92.6044 -72.9894 92.6045 -73.0615 92.1097C-73.133 91.6195 -73.1322 91.6148 -73.1298 91.6144L-73.0825 91.6075C-73.0499 91.603 -73.0017 91.5966 -72.9382 91.5884ZM-66.1767 82.5175C-66.0494 82.501 -65.8601 82.4777 -65.6093 82.4495C-65.1072 82.393 -64.3583 82.317 -63.3672 82.2389C-61.3845 82.0828 -58.4304 81.9176 -54.5374 81.8806C-46.7514 81.8066 -35.207 82.2449 -20.1509 84.2892C9.96274 88.3782 54.121 98.8931 110.35 124.588C222.807 175.978 383.533 288.081 576.76 530.909C769.914 773.645 930.523 885.634 1042.8 936.944C1098.95 962.598 1143.01 973.086 1173.02 977.161C1188.03 979.199 1199.53 979.634 1207.27 979.56C1211.14 979.523 1214.07 979.36 1216.03 979.205C1217.01 979.128 1217.74 979.054 1218.24 978.998C1218.48 978.971 1218.67 978.948 1218.79 978.932C1218.85 978.924 1218.89 978.918 1218.92 978.914L1218.96 978.908C1218.97 978.908 1218.97 978.908 1219.04 979.402C1219.11 979.893 1219.11 979.897 1219.11 979.898L1219.06 979.905C1219.03 979.909 1218.98 979.916 1218.91 979.924C1218.79 979.94 1218.6 979.963 1218.35 979.992C1217.85 980.048 1217.1 980.124 1216.11 980.202C1214.12 980.358 1211.17 980.524 1207.28 980.561C1199.49 980.635 1187.95 980.196 1172.89 978.152C1142.78 974.063 1098.62 963.548 1042.39 937.853C929.932 886.463 769.206 774.361 575.978 531.532C382.825 288.796 222.216 176.807 109.934 125.497C53.7928 99.8427 9.72996 89.3554 -20.2847 85.2799C-35.2924 83.2421 -46.7896 82.8074 -54.5286 82.881C-58.3977 82.9178 -61.3277 83.0816 -63.2879 83.2359C-64.2678 83.3131 -65.0057 83.3874 -65.497 83.4427C-65.7426 83.4704 -65.9268 83.4936 -66.0488 83.5094C-66.1097 83.5173 -66.1555 83.5232 -66.1853 83.5273L-66.2259 83.5332C-66.2274 83.5335 -66.2278 83.5335 -66.3 83.0388C-66.3715 82.5485 -66.3707 82.5438 -66.3683 82.5434L-66.321 82.5365C-66.2884 82.532 -66.2401 82.5257 -66.1767 82.5175ZM-59.4152 73.4465C-59.2879 73.4301 -59.0985 73.4068 -58.8477 73.3786C-58.3456 73.322 -57.5968 73.246 -56.6056 73.168C-54.6229 73.0118 -51.6688 72.8467 -47.7758 72.8097C-39.9899 72.7356 -28.4455 73.1739 -13.3894 75.2183C16.7243 79.3073 60.8825 89.8222 117.111 115.517C229.568 166.907 390.294 279.01 583.521 521.838C776.675 764.574 937.284 876.563 1049.57 927.873C1105.71 953.528 1149.77 964.015 1179.78 968.09C1194.79 970.128 1206.29 970.563 1214.03 970.489C1217.9 970.452 1220.83 970.289 1222.79 970.134C1223.77 970.057 1224.51 969.983 1225 969.928C1225.24 969.9 1225.43 969.877 1225.55 969.861C1225.61 969.853 1225.66 969.847 1225.69 969.843L1225.73 969.837C1225.73 969.837 1225.73 969.837 1225.8 970.331C1225.87 970.822 1225.87 970.826 1225.87 970.827L1225.82 970.834C1225.79 970.838 1225.74 970.845 1225.68 970.853C1225.55 970.869 1225.36 970.893 1225.11 970.921C1224.61 970.977 1223.86 971.053 1222.87 971.131C1220.88 971.287 1217.93 971.453 1214.04 971.49C1206.25 971.564 1194.71 971.125 1179.65 969.081C1149.54 964.992 1105.38 954.477 1049.15 928.782C936.693 877.392 775.967 765.29 582.74 522.461C389.586 279.725 228.977 167.736 116.695 116.426C60.5544 90.7718 16.4915 80.2845 -13.5232 76.2089C-28.5309 74.1711 -40.0281 73.7365 -47.7671 73.8101C-51.6362 73.8469 -54.5662 74.0107 -56.5263 74.165C-57.5063 74.2422 -58.2442 74.3165 -58.7354 74.3718C-58.9811 74.3994 -59.1653 74.4227 -59.2873 74.4385C-59.3482 74.4463 -59.3939 74.4523 -59.4238 74.4564L-59.4644 74.4623C-59.4658 74.4625 -59.4663 74.4626 -59.5385 73.9678C-59.61 73.4776 -59.6092 73.4729 -59.6068 73.4725L-59.5594 73.4656C-59.5269 73.4611 -59.4786 73.4547 -59.4152 73.4465ZM-52.6536 64.3756C-52.5263 64.3591 -52.337 64.3359 -52.0862 64.3076C-51.5841 64.2511 -50.8352 64.1751 -49.8441 64.097C-47.8614 63.9409 -44.9073 63.7758 -41.0143 63.7387C-33.2283 63.6647 -21.684 64.103 -6.62786 66.1474C23.4858 70.2364 67.6441 80.7512 123.873 106.446C236.33 157.836 397.056 269.939 590.283 512.767C783.437 755.504 944.046 867.492 1056.33 918.802C1112.47 944.457 1156.53 954.944 1186.55 959.019C1201.55 961.057 1213.05 961.492 1220.79 961.418C1224.66 961.381 1227.59 961.218 1229.55 961.063C1230.53 960.986 1231.27 960.912 1231.76 960.857C1232 960.829 1232.19 960.806 1232.31 960.79C1232.37 960.782 1232.42 960.776 1232.45 960.772L1232.49 960.766C1232.49 960.766 1232.49 960.766 1232.56 961.261C1232.63 961.751 1232.63 961.755 1232.63 961.756L1232.58 961.763C1232.55 961.767 1232.5 961.774 1232.44 961.782C1232.31 961.798 1232.12 961.822 1231.87 961.85C1231.37 961.906 1230.62 961.982 1229.63 962.06C1227.65 962.217 1224.69 962.382 1220.8 962.419C1213.01 962.493 1201.47 962.054 1186.41 960.01C1156.3 955.921 1112.14 945.406 1055.91 919.711C943.455 868.322 782.729 756.219 589.501 513.39C396.348 270.654 235.739 158.665 123.457 107.356C67.3159 81.7008 23.253 71.2136 -6.76167 67.138C-21.7693 65.1002 -33.2666 64.6656 -41.0056 64.7392C-44.8747 64.776 -47.8047 64.9397 -49.7648 65.0941C-50.7448 65.1713 -51.4827 65.2456 -51.9739 65.3009C-52.2195 65.3285 -52.4038 65.3518 -52.5257 65.3675C-52.5867 65.3754 -52.6324 65.3814 -52.6623 65.3855L-52.7029 65.3914C-52.7043 65.3916 -52.7048 65.3917 -52.777 64.8969C-52.8485 64.4067 -52.8477 64.402 -52.8453 64.4016L-52.7979 64.3947C-52.7653 64.3902 -52.7171 64.3838 -52.6536 64.3756ZM-45.8921 55.3047C-45.7648 55.2882 -45.5755 55.2649 -45.3247 55.2367C-44.8226 55.1802 -44.0737 55.1042 -43.0826 55.0261C-41.0999 54.87 -38.1458 54.7048 -34.2528 54.6678C-26.4668 54.5938 -14.9224 55.0321 0.133664 57.0765C30.2473 61.1654 74.4056 71.6803 130.634 97.3752C243.091 148.765 403.817 260.868 597.044 503.696C790.198 746.433 950.807 858.421 1063.09 909.731C1119.23 935.386 1163.29 945.873 1193.31 949.949C1208.32 951.986 1219.81 952.421 1227.55 952.347C1231.42 952.311 1234.35 952.147 1236.31 951.992C1237.29 951.915 1238.03 951.841 1238.52 951.786C1238.77 951.758 1238.95 951.735 1239.07 951.719C1239.13 951.711 1239.18 951.705 1239.21 951.701L1239.25 951.695C1239.25 951.695 1239.25 951.695 1239.32 952.19C1239.39 952.68 1239.39 952.685 1239.39 952.685L1239.34 952.692C1239.31 952.696 1239.26 952.703 1239.2 952.711C1239.07 952.727 1238.88 952.751 1238.63 952.779C1238.13 952.835 1237.38 952.911 1236.39 952.989C1234.41 953.146 1231.45 953.311 1227.56 953.348C1219.77 953.422 1208.23 952.984 1193.17 950.939C1163.06 946.85 1118.9 936.335 1062.67 910.64C950.216 859.251 789.49 747.148 596.263 504.319C403.109 261.583 242.5 149.594 130.218 98.2846C74.0774 72.6299 30.0145 62.1427 -0.000143122 58.0671C-15.0078 56.0293 -26.505 55.5946 -34.244 55.6682C-38.1132 55.7051 -41.0432 55.8688 -43.0033 56.0232C-43.9833 56.1003 -44.7212 56.1746 -45.2124 56.2299C-45.458 56.2576 -45.6423 56.2808 -45.7642 56.2966C-45.8251 56.3045 -45.8709 56.3104 -45.9007 56.3145L-45.9413 56.3205C-45.9428 56.3207 -45.9433 56.3207 -46.0154 55.826C-46.0869 55.3357 -46.0861 55.331 -46.0837 55.3306L-46.0364 55.3237C-46.0038 55.3193 -45.9556 55.3129 -45.8921 55.3047ZM-39.1306 46.2337C-39.0033 46.2173 -38.814 46.194 -38.5632 46.1658C-38.061 46.1093 -37.3122 46.0333 -36.3211 45.9552C-34.3384 45.799 -31.3842 45.6339 -27.4913 45.5969C-19.7053 45.5228 -8.16091 45.9612 6.89519 48.0055C37.0089 52.0945 81.1671 62.6094 137.396 88.3043C249.853 139.694 410.579 251.797 603.806 494.625C796.96 737.362 957.569 849.35 1069.85 900.66C1125.99 926.315 1170.05 936.802 1200.07 940.878C1215.08 942.915 1226.57 943.35 1234.31 943.276C1238.18 943.24 1241.11 943.076 1243.07 942.922C1244.05 942.844 1244.79 942.77 1245.28 942.715C1245.53 942.687 1245.71 942.664 1245.83 942.648C1245.89 942.64 1245.94 942.634 1245.97 942.63L1246.01 942.624C1246.01 942.624 1246.01 942.624 1246.08 943.119C1246.16 943.609 1246.16 943.614 1246.15 943.614L1246.11 943.621C1246.07 943.625 1246.02 943.632 1245.96 943.64C1245.83 943.656 1245.64 943.68 1245.39 943.708C1244.89 943.764 1244.14 943.84 1243.15 943.919C1241.17 944.075 1238.21 944.24 1234.32 944.277C1226.54 944.351 1214.99 943.913 1199.94 941.868C1169.82 937.779 1125.66 927.264 1069.43 901.569C956.978 850.18 796.252 738.077 603.024 495.248C409.871 252.512 249.262 140.524 136.98 89.2137C80.8389 63.559 36.7761 53.0717 6.76138 48.9962C-8.24629 46.9583 -19.7435 46.5237 -27.4825 46.5973C-31.3516 46.6341 -34.2816 46.7979 -36.2417 46.9522C-37.2217 47.0294 -37.9596 47.1037 -38.4509 47.159C-38.6965 47.1866 -38.8807 47.2099 -39.0027 47.2257C-39.0636 47.2335 -39.1093 47.2395 -39.1392 47.2436L-39.1798 47.2495C-39.1813 47.2497 -39.1817 47.2498 -39.2539 46.755C-39.3254 46.2648 -39.3246 46.2601 -39.3222 46.2597L-39.2749 46.2528C-39.2423 46.2483 -39.194 46.2419 -39.1306 46.2337ZM-32.3691 37.1628C-32.2418 37.1464 -32.0524 37.1231 -31.8016 37.0949C-31.2995 37.0383 -30.5507 36.9623 -29.5595 36.8843C-27.5768 36.7281 -24.6227 36.563 -20.7297 36.526C-12.9437 36.4519 -1.39938 36.8902 13.6567 38.9346C43.7704 43.0236 87.9287 53.5384 144.157 79.2334C256.614 130.623 417.34 242.726 610.568 485.554C803.721 728.291 964.33 840.279 1076.61 891.589C1132.75 917.244 1176.82 927.731 1206.83 931.807C1221.84 933.844 1233.34 934.279 1241.07 934.205C1244.94 934.169 1247.87 934.005 1249.83 933.851C1250.81 933.773 1251.55 933.699 1252.04 933.644C1252.29 933.616 1252.47 933.593 1252.59 933.577C1252.66 933.569 1252.7 933.563 1252.73 933.559L1252.77 933.553C1252.77 933.553 1252.77 933.553 1252.85 934.048C1252.92 934.538 1252.92 934.543 1252.91 934.543L1252.87 934.55C1252.83 934.554 1252.79 934.561 1252.72 934.569C1252.6 934.586 1252.41 934.609 1252.16 934.637C1251.65 934.694 1250.9 934.77 1249.91 934.848C1247.93 935.004 1244.98 935.169 1241.08 935.206C1233.3 935.28 1221.75 934.842 1206.7 932.797C1176.58 928.708 1132.42 918.193 1076.2 892.499C963.739 841.109 803.013 729.006 609.786 486.178C416.632 243.441 256.023 131.453 143.741 80.1428C87.6005 54.488 43.5376 44.0008 13.5229 39.9252C-1.48476 37.8874 -12.982 37.4528 -20.721 37.5264C-24.5901 37.5632 -27.5201 37.7269 -29.4802 37.8813C-30.4602 37.9585 -31.1981 38.0328 -31.6893 38.0881C-31.9349 38.1157 -32.1192 38.139 -32.2411 38.1547C-32.3021 38.1626 -32.3478 38.1686 -32.3777 38.1727L-32.4183 38.1786C-32.4197 38.1788 -32.4202 38.1789 -32.4924 37.6841C-32.5639 37.1939 -32.5631 37.1892 -32.5607 37.1888L-32.5133 37.1819C-32.4808 37.1774 -32.4325 37.171 -32.3691 37.1628ZM-25.6075 28.0919C-25.4802 28.0754 -25.2909 28.0522 -25.0401 28.0239C-24.538 27.9674 -23.7891 27.8914 -22.798 27.8133C-20.8153 27.6572 -17.8612 27.4921 -13.9682 27.455C-6.18222 27.381 5.36214 27.8193 20.4182 29.8637C50.5319 33.9527 94.6902 44.4675 150.919 70.1624C263.376 121.552 424.102 233.655 617.329 476.483C810.483 719.22 971.092 831.208 1083.37 882.518C1139.51 908.173 1183.58 918.66 1213.59 922.736C1228.6 924.774 1240.1 925.208 1247.84 925.135C1251.71 925.098 1254.64 924.934 1256.6 924.78C1257.58 924.702 1258.31 924.628 1258.8 924.573C1259.05 924.545 1259.23 924.522 1259.36 924.506C1259.42 924.498 1259.46 924.492 1259.49 924.488L1259.53 924.482C1259.53 924.482 1259.54 924.482 1259.61 924.977C1259.68 925.467 1259.68 925.472 1259.68 925.472L1259.63 925.479C1259.6 925.484 1259.55 925.49 1259.48 925.498C1259.36 925.515 1259.17 925.538 1258.92 925.566C1258.41 925.623 1257.67 925.699 1256.67 925.777C1254.69 925.933 1251.74 926.098 1247.84 926.135C1240.06 926.209 1228.51 925.771 1213.46 923.726C1183.34 919.637 1139.19 909.123 1082.96 883.428C970.501 832.038 809.775 719.935 616.548 477.107C423.394 234.37 262.785 122.382 150.503 71.0718C94.362 45.4171 50.2991 34.9299 20.2844 30.8543C5.27676 28.8165 -6.22045 28.3818 -13.9595 28.4555C-17.8286 28.4923 -20.7586 28.656 -22.7187 28.8104C-23.6987 28.8876 -24.4366 28.9618 -24.9278 29.0171C-25.1734 29.0448 -25.3577 29.068 -25.4796 29.0838C-25.5405 29.0917 -25.5863 29.0976 -25.6162 29.1018L-25.6567 29.1077C-25.6582 29.1079 -25.6587 29.108 -25.7308 28.6132C-25.8024 28.123 -25.8016 28.1183 -25.7991 28.1179L-25.7518 28.111C-25.7192 28.1065 -25.671 28.1001 -25.6075 28.0919ZM-18.846 19.021C-18.7187 19.0045 -18.5294 18.9812 -18.2786 18.953C-17.7765 18.8965 -17.0276 18.8205 -16.0365 18.7424C-14.0538 18.5863 -11.0997 18.4211 -7.20667 18.3841C0.579311 18.3101 12.1237 18.7484 27.1798 20.7927C57.2934 24.8817 101.452 35.3966 157.68 61.0915C270.137 112.481 430.863 224.584 624.091 467.412C817.244 710.149 977.853 822.137 1090.14 873.447C1146.28 899.102 1190.34 909.589 1220.35 913.665C1235.36 915.703 1246.86 916.137 1254.6 916.064C1258.47 916.027 1261.4 915.863 1263.36 915.709C1264.34 915.632 1265.07 915.557 1265.57 915.502C1265.81 915.474 1266 915.451 1266.12 915.435C1266.18 915.427 1266.22 915.421 1266.25 915.417L1266.29 915.411C1266.3 915.411 1266.3 915.411 1266.37 915.906C1266.44 916.396 1266.44 916.401 1266.44 916.401L1266.39 916.408C1266.36 916.413 1266.31 916.419 1266.25 916.427C1266.12 916.444 1265.93 916.467 1265.68 916.495C1265.18 916.552 1264.43 916.628 1263.44 916.706C1261.45 916.862 1258.5 917.027 1254.61 917.064C1246.82 917.138 1235.28 916.7 1220.22 914.655C1190.11 910.566 1145.95 900.052 1089.72 874.357C977.262 822.967 816.536 710.864 623.309 468.036C430.155 225.299 269.546 113.311 157.264 62.0009C101.124 36.3462 57.0607 25.8589 27.046 21.7834C12.0383 19.7456 0.541075 19.3109 -7.19792 19.3845C-11.067 19.4213 -13.9971 19.5851 -15.9572 19.7394C-16.9371 19.8166 -17.6751 19.8909 -18.1663 19.9462C-18.4119 19.9739 -18.5961 19.9971 -18.7181 20.0129C-18.779 20.0208 -18.8248 20.0267 -18.8546 20.0308L-18.8952 20.0367C-18.8967 20.037 -18.8971 20.037 -18.9693 19.5423C-19.0408 19.052 -19.04 19.0473 -19.0376 19.0469L-18.9903 19.04C-18.9577 19.0356 -18.9094 19.0292 -18.846 19.021ZM-12.0845 9.95003C-11.9572 9.93357 -11.7679 9.9103 -11.5171 9.88207C-11.0149 9.82555 -10.2661 9.74954 -9.27495 9.67148C-7.29225 9.51533 -4.33813 9.3502 -0.445144 9.31318C7.34084 9.23914 18.8852 9.67745 33.9413 11.7218C64.055 15.8108 108.213 26.3257 164.442 52.0206C276.899 103.41 437.625 215.513 630.852 458.342C824.006 701.078 984.615 813.067 1096.9 864.376C1153.04 890.031 1197.1 900.518 1227.12 904.594C1242.12 906.632 1253.62 907.066 1261.36 906.993C1265.23 906.956 1268.16 906.792 1270.12 906.638C1271.1 906.561 1271.84 906.486 1272.33 906.431C1272.57 906.403 1272.76 906.38 1272.88 906.364C1272.94 906.356 1272.99 906.351 1273.02 906.346L1273.06 906.34C1273.06 906.34 1273.06 906.34 1273.13 906.835C1273.2 907.325 1273.2 907.33 1273.2 907.33L1273.15 907.337C1273.12 907.342 1273.07 907.348 1273.01 907.356C1272.88 907.373 1272.69 907.396 1272.44 907.424C1271.94 907.481 1271.19 907.557 1270.2 907.635C1268.21 907.791 1265.26 907.956 1261.37 907.993C1253.58 908.067 1242.04 907.629 1226.98 905.584C1196.87 901.496 1152.71 890.981 1096.48 865.286C984.024 813.896 823.298 701.793 630.071 458.965C436.917 216.228 276.308 104.24 164.026 52.93C107.885 27.2753 63.8222 16.788 33.8075 12.7124C18.7998 10.6746 7.3026 10.24 -0.436396 10.3136C-4.30552 10.3504 -7.23553 10.5142 -9.19564 10.6685C-10.1756 10.7457 -10.9135 10.82 -11.4047 10.8753C-11.6504 10.9029 -11.8346 10.9262 -11.9566 10.942C-12.0175 10.9498 -12.0632 10.9558 -12.0931 10.9599L-12.1337 10.9658C-12.1351 10.966 -12.1356 10.9661 -12.2078 10.4713C-12.2793 9.9811 -12.2785 9.9764 -12.2761 9.97601L-12.2287 9.9691C-12.1962 9.96462 -12.1479 9.95823 -12.0845 9.95003ZM-5.32295 0.879104C-5.19564 0.862646 -5.00633 0.839375 -4.75553 0.811141C-4.25341 0.754617 -3.50454 0.678609 -2.51342 0.60055C-0.530721 0.444405 2.42339 0.279275 6.31638 0.242247C14.1024 0.168208 25.6467 0.60652 40.7028 2.65089C70.8165 6.73987 114.975 17.2547 171.203 42.9496C283.66 94.3395 444.387 206.442 637.614 449.271C830.768 692.007 991.376 803.996 1103.66 855.305C1159.8 880.96 1203.86 891.447 1233.88 895.523C1248.88 897.561 1260.38 897.995 1268.12 897.922C1271.99 897.885 1274.92 897.721 1276.88 897.567C1277.86 897.49 1278.6 897.415 1279.09 897.36C1279.33 897.332 1279.52 897.309 1279.64 897.293C1279.7 897.286 1279.75 897.28 1279.78 897.275L1279.82 897.27C1279.82 897.269 1279.82 897.269 1279.89 897.764C1279.96 898.254 1279.96 898.259 1279.96 898.259L1279.91 898.266C1279.88 898.271 1279.83 898.277 1279.77 898.285C1279.64 898.302 1279.45 898.325 1279.2 898.353C1278.7 898.41 1277.95 898.486 1276.96 898.564C1274.98 898.72 1272.02 898.885 1268.13 898.922C1260.34 898.996 1248.8 898.558 1233.74 896.514C1203.63 892.425 1159.47 881.91 1103.24 856.215C990.785 804.825 830.059 692.722 636.832 449.894C443.678 207.157 283.069 95.1689 170.787 43.8591C114.647 18.2043 70.5837 7.71709 40.569 3.64152C25.5613 1.6037 14.0641 1.16906 6.32513 1.24267C2.45601 1.27948 -0.474 1.44323 -2.43411 1.59759C-3.41409 1.67477 -4.152 1.74906 -4.64322 1.80435C-4.88883 1.832 -5.07309 1.85526 -5.19504 1.87103C-5.25596 1.8789 -5.30171 1.88486 -5.33158 1.88897L-5.37216 1.89489C-5.37362 1.8951 -5.37409 1.89517 -5.44626 1.40041C-5.51777 0.910176 -5.51698 0.905469 -5.51457 0.90508L-5.46722 0.898174C-5.43465 0.893694 -5.38639 0.887306 -5.32295 0.879104Z" fill="url(#paint0_radial_112_163)"/>
<defs>
<radialGradient id="paint0_radial_112_163" cx="0" cy="0" r="1" gradientUnits="userSpaceOnUse" gradientTransform="translate(114.5 241) rotate(38.768) scale(1074.79 1127.4)">
<stop stop-color="#9350F2"/>
<stop offset="0.5" stop-color="#D745E3" stop-opacity="0.34"/>
<stop offset="1" stop-color="#9A2FA3" stop-opacity="0.16"/>
</radialGradient>
</defs>
</svg>
